<?xml version="1.0" encoding="utf-8"?>
<!-- Svg Vector Icons : http://www.onlinewebfonts.com/icon -->
<!DOCTYPE svg PUBLIC "-//W3C//DTD SVG 1.1//EN" "http://www.w3.org/Graphics/SVG/1.1/DTD/svg11.dtd">
<svg version="1.1" xmlns="http://www.w3.org/2000/svg" xmlns:xlink="http://www.w3.org/1999/xlink" x="0px" y="0px" viewBox="0 0 1000 1000" enable-background="new 0 0 1000 1000" xml:space="preserve">
<metadata> Svg Vector Icons : http://www.onlinewebfonts.com/icon </metadata>
<g><g transform="translate(0.000000,511.000000) scale(0.100000,-0.100000)"><path d="M4373.9,4630.9c-1149-149.2-2292.5-754-3049.3-1618.6c-574.5-660.1-975-1466.6-1146.2-2317.3C103.8,316.7,76.2-434.6,123.1-826.8c160.2-1320.2,861.8-2538.3,1922.4-3336.5c312.1-234.8,392.2-273.4,555.2-273.4c116,0,174,19.3,303.8,99.4c408.8,248.6,842.4,422.6,1317.5,524.8c403.3,85.6,1154.5,85.6,1557.8,0c475.1-102.2,847.9-251.4,1289.9-511c160.2-93.9,215.4-113.3,336.9-113.3c132.6,0,168.5,13.8,381.2,157.4c922.5,627,1643.4,1637.9,1936.2,2709.5c113.2,417.1,154.7,693.3,171.3,1149c24.8,646.3-44.2,1124.2-243,1726.3c-588.3,1770.5-2124,3049.3-3982.8,3314.4C5362.7,4664.1,4674.9,4669.6,4373.9,4630.9z M5801.8,3625.6C7392.7,3299.6,8632.9,2004.2,8895.3,394c55.2-328.7,52.5-958.4-2.8-1287.1c-52.5-309.3-218.2-828.6-350.8-1093.7c-223.7-441.9-638-964-1016.4-1281.6l-138.1-116l-281.7,132.6c-1361.7,632.5-2861.4,629.7-4223.1-5.5l-267.9-127l-107.7,85.6c-204.4,163-632.5,635.3-784.4,864.5c-453,682.2-665.6,1386.5-665.6,2193.1c2.8,1278.8,571.7,2414,1593.7,3176.3C3525.9,3586.9,4716.4,3849.3,5801.8,3625.6z"/><path d="M4848.9,3169.8c-49.7-49.7-55.2-91.1-55.2-430.9c0-204.4,11.1-397.7,27.6-425.3c63.5-118.8,320.4-110.5,370.1,13.8c8.3,24.9,16.6,212.7,16.6,417.1c0,334.2-5.5,375.6-55.2,425.3c-33.2,33.2-91.1,55.2-151.9,55.2C4940.1,3225.1,4882.1,3203,4848.9,3169.8z"/><path d="M3244.2,2730.7c-44.2-44.2-80.1-105-80.1-132.6c0-58,284.5-571.7,367.3-662.9c105-118.8,345.3-52.5,353.6,96.7c8.3,93.9-8.3,135.4-174,425.4C3495.5,2830.1,3401.7,2885.3,3244.2,2730.7z"/><path d="M6517.2,2780.4c-85.6-44.2-406-599.4-408.8-712.6c0-116,88.4-196.1,221-196.1c107.7,0,151.9,52.5,356.3,411.5c154.7,270.7,168.5,367.4,58,464C6663.6,2816.3,6608.3,2824.6,6517.2,2780.4z"/><path d="M2075.9,1565.1c-88.4-69.1-102.2-240.3-22.1-306.6c107.7-93.9,593.8-353.5,657.4-353.5c162.9,0,267.9,154.7,198.8,292.8c-41.4,82.9-602.1,422.6-701.5,425.4C2175.3,1623.1,2117.3,1598.2,2075.9,1565.1z"/><path d="M7431.4,1446.3c-171.3-96.7-320.4-204.4-339.7-240.3c-69.1-132.6,33.1-301.1,185.1-301.1c80.1,0,629.7,303.8,687.7,378.4c16.6,24.9,33.2,85.6,33.2,135.3c0,102.2-102.2,204.4-204.4,204.4C7760.1,1623.1,7597.1,1543,7431.4,1446.3z"/><path d="M5956.5,615c-756.8-331.4-790-345.3-928-328.7c-513.7,60.8-889.4-469.6-665.6-941.9c77.3-165.7,154.7-240.3,320.4-314.9c370.1-168.5,801,33.1,911.5,422.6c30.4,113.3,102.2,190.6,665.7,723.7c635.2,599.3,687.7,662.9,599.3,751.3c-19.3,19.3-52.5,33.2-74.6,30.4C6760.3,957.4,6387.4,802.8,5956.5,615z"/><path d="M1683.7-17.6c-140.9-63.5-165.7-223.7-52.5-334.2c63.5-66.3,80.1-69.1,436.4-69.1c414.3,0,475.1,22.1,505.5,182.3c13.8,66.3,0,102.2-52.5,165.7c-69.1,80.1-71.8,80.1-411.6,88.4C1866,18.3,1744.4,10.1,1683.7-17.6z"/><path d="M7566.8-6.5c-77.4-30.4-149.2-132.6-149.2-215.4c0-33.1,30.4-93.9,69.1-129.8c63.5-66.3,80.1-69.1,441.9-69.1c361.8,0,378.4,2.8,441.9,69.1c118.8,116,77.3,284.5-80.1,345.3C8199.3,26.7,7649.6,26.7,7566.8-6.5z"/><path d="M2352.1-1481.4c-163-96.7-309.4-193.3-323.2-212.7c-44.2-69-27.6-215.4,30.4-273.4c91.1-91.1,201.6-69.1,491.6,99.4c325.9,187.8,372.9,229.2,372.9,345.2c0,102.2-113.2,218.2-209.9,215.4C2680.7-1307.4,2517.8-1384.8,2352.1-1481.4z"/><path d="M7177.3-1337.8c-33.2-16.6-74.6-66.3-93.9-113.2c-55.2-129.8,8.3-204.4,334.2-397.7c317.6-190.6,428.1-215.4,524.8-118.8c66.3,66.3,74.6,226.5,13.8,284.5c-69,71.8-615.9,378.4-668.4,375.6C7260.2-1307.4,7210.5-1321.2,7177.3-1337.8z"/></g></g>
</svg>